<svg viewBox="142.56 399.6 801.36 285.12" xmlns="http://www.w3.org/2000/svg" data-name="Layer 1" id="Layer_1" style="max-height: 500px" width="801.36" height="285.12">
  <defs>
    <style>
      .cls-1 {
        fill: #e73400;
      }

      .cls-2 {
        fill: #6200f7;
      }
    </style>
  </defs>
  <g>
    <g>
      <path d="M415.84,636.72c-.98-.38-1.87-.85-2.67-1.43-.8-.57-1.46-1.26-1.97-2.07s-.77-1.78-.77-2.91.25-2.14.76-3.04c.5-.9,1.16-1.65,1.97-2.26.81-.61,1.72-1.08,2.72-1.4,1-.33,2-.49,3-.49,1.74,0,3.32.35,4.74,1.05,1.43.7,2.53,1.72,3.32,3.07.12.21.14.42.08.63-.07.22-.17.38-.3.5-.16.15-.37.23-.61.26-.24.02-.49-.07-.75-.28-.88-1.17-1.85-1.99-2.93-2.44-1.08-.45-2.25-.68-3.53-.68-.7,0-1.42.1-2.16.31-.74.21-1.42.52-2.04.95-.62.42-1.12.95-1.53,1.58-.4.63-.61,1.38-.62,2.24,0,.58.11,1.09.32,1.55s.5.85.87,1.2c.36.35.78.66,1.25.92s.95.5,1.46.69c.5.19,1.01.36,1.5.51.5.15.96.28,1.39.4,1.13.37,2.22.78,3.29,1.23,1.06.45,2.01.98,2.83,1.59.82.62,1.49,1.35,1.98,2.2.5.85.75,1.88.75,3.06,0,1.29-.26,2.46-.77,3.51-.51,1.05-1.2,1.94-2.06,2.67-.86.73-1.85,1.3-2.97,1.69-1.12.39-2.28.59-3.49.59-1.02,0-2.02-.14-2.99-.41s-1.86-.65-2.67-1.14c-.82-.48-1.53-1.05-2.14-1.72s-1.08-1.37-1.4-2.13c-.16-.36-.19-.66-.07-.9.12-.24.3-.43.53-.55.49-.25.97-.07,1.43.53.28.62.68,1.2,1.19,1.72.51.52,1.1.96,1.75,1.33.65.36,1.36.65,2.13.85.76.2,1.55.3,2.35.3.85,0,1.69-.13,2.53-.4.84-.27,1.6-.66,2.27-1.19.68-.53,1.22-1.18,1.64-1.97.42-.79.62-1.7.62-2.74,0-.91-.21-1.67-.63-2.31s-.98-1.17-1.67-1.63-1.47-.85-2.35-1.18c-.88-.33-1.77-.66-2.67-.97-.95-.24-1.92-.55-2.9-.92Z" class="cls-2"/>
      <path d="M431.59,637.36c.56-1.3,1.32-2.43,2.28-3.39.97-.96,2.09-1.72,3.39-2.27,1.29-.56,2.67-.84,4.12-.84s2.85.28,4.13.84c1.28.56,2.41,1.31,3.36,2.27.96.96,1.72,2.09,2.27,3.39.56,1.3.84,2.68.84,4.15s-.28,2.83-.84,4.12c-.56,1.29-1.31,2.42-2.27,3.38-.96.96-2.08,1.72-3.36,2.27-1.28.56-2.66.84-4.13.84s-2.83-.28-4.12-.84c-1.29-.56-2.42-1.31-3.39-2.27-.97-.96-1.73-2.08-2.28-3.38s-.84-2.66-.84-4.12.28-2.85.84-4.15ZM433.56,644.79c.44,1.02,1.04,1.92,1.8,2.7.76.77,1.66,1.38,2.7,1.84,1.03.45,2.14.68,3.33.68s2.32-.23,3.35-.68c1.03-.45,1.93-1.07,2.68-1.84s1.35-1.67,1.79-2.7.66-2.12.66-3.27-.22-2.28-.66-3.32c-.44-1.04-1.04-1.94-1.8-2.71s-1.66-1.37-2.7-1.82c-1.03-.44-2.14-.67-3.33-.67s-2.3.22-3.33.67c-1.03.45-1.93,1.05-2.7,1.82-.77.77-1.37,1.67-1.8,2.71-.44,1.04-.66,2.15-.66,3.32s.22,2.25.66,3.27Z" class="cls-2"/>
      <path d="M457.36,650.81c0,.3-.1.55-.31.75s-.46.3-.76.3-.55-.1-.76-.3-.31-.45-.31-.75v-26.42c0-.3.1-.55.31-.75.21-.2.46-.3.76-.3s.55.1.76.3c.21.2.31.45.31.75v26.42Z" class="cls-2"/>
      <path d="M461.91,631.17c.2-.2.46-.3.79-.3.28,0,.52.1.72.3.2.2.3.46.3.77v9.68c0,2.66.57,4.68,1.7,6.05,1.14,1.38,2.71,2.06,4.71,2.06.99,0,1.94-.2,2.83-.61.89-.41,1.66-.97,2.32-1.69.65-.72,1.17-1.57,1.56-2.54.39-.97.58-2.03.58-3.16v-9.77c0-.3.1-.55.3-.77.2-.22.45-.32.75-.32s.55.11.76.32.31.47.31.77v18.82c0,.3-.1.55-.31.77s-.46.32-.76.32-.55-.11-.75-.32-.3-.47-.3-.77v-3.39c-.43.67-.92,1.27-1.48,1.82s-1.15,1.01-1.79,1.4c-.64.39-1.31.7-2.03.91-.71.22-1.45.32-2.2.32-1.28,0-2.43-.23-3.45-.7-1.02-.47-1.9-1.14-2.62-2.02-.72-.88-1.27-1.95-1.66-3.22-.39-1.27-.58-2.7-.58-4.29v-9.69c0-.31.1-.57.3-.77Z" class="cls-2"/>
      <path d="M484.84,641.38s-.01.05-.04.11l.02.05.02.02c0,1.11.21,2.18.62,3.19.42,1.01.99,1.9,1.72,2.66.73.77,1.59,1.38,2.6,1.84,1,.46,2.08.69,3.24.69,1.07.02,2.08-.15,3.03-.49.95-.34,1.83-.88,2.63-1.6.1-.09.22-.17.35-.26.13-.08.26-.14.4-.18.14-.04.29-.04.45,0,.16.04.32.13.48.28.24.21.35.46.35.77,0,.3-.14.58-.39.84-.88.89-1.94,1.58-3.2,2.07-1.26.49-2.56.73-3.91.73-1.46,0-2.82-.27-4.09-.81-1.27-.54-2.38-1.29-3.34-2.24-.96-.95-1.71-2.06-2.26-3.32-.55-1.26-.82-2.62-.82-4.08,0-.06,0-.11.02-.16-.01-.03-.02-.07-.02-.11,0-1.45.27-2.82.82-4.1.55-1.28,1.3-2.39,2.26-3.35s2.07-1.72,3.34-2.27c1.27-.56,2.63-.83,4.09-.83,1.35,0,2.65.24,3.91.73,1.25.49,2.32,1.18,3.2,2.07.25.25.38.53.39.85,0,.31-.11.57-.35.78-.16.15-.32.24-.48.28-.16.04-.3.04-.45,0-.14-.04-.28-.1-.4-.18-.13-.08-.24-.17-.35-.26-.79-.71-1.66-1.25-2.62-1.6-.96-.36-1.97-.53-3.04-.51-1.14,0-2.21.23-3.21.69-1,.46-1.86,1.07-2.6,1.84-.74.76-1.31,1.66-1.74,2.67-.42,1.02-.64,2.08-.64,3.2Z" class="cls-2"/>
      <path d="M503.97,625.08c.26-.27.58-.4.97-.4s.74.13,1,.4c.27.27.4.6.4,1,0,.37-.13.69-.4.96-.27.27-.6.4-1,.4s-.71-.13-.97-.4-.39-.59-.39-.96c0-.4.13-.74.39-1ZM506,650.76c0,.3-.1.55-.3.77-.2.22-.45.32-.75.32s-.55-.11-.76-.32c-.21-.22-.31-.47-.31-.77v-18.82c0-.3.1-.55.31-.76.21-.21.46-.31.76-.31s.55.1.75.31c.2.21.3.46.3.76v18.82Z" class="cls-2"/>
      <path d="M510,637.36c.56-1.3,1.32-2.43,2.28-3.39.97-.96,2.09-1.72,3.39-2.27,1.29-.56,2.67-.84,4.12-.84s2.85.28,4.13.84c1.28.56,2.41,1.31,3.36,2.27.96.96,1.72,2.09,2.27,3.39.56,1.3.84,2.68.84,4.15s-.28,2.83-.84,4.12c-.56,1.29-1.31,2.42-2.27,3.38-.96.96-2.08,1.72-3.36,2.27-1.28.56-2.66.84-4.13.84s-2.83-.28-4.12-.84c-1.29-.56-2.42-1.31-3.39-2.27-.97-.96-1.73-2.08-2.28-3.38s-.84-2.66-.84-4.12.28-2.85.84-4.15ZM511.96,644.79c.44,1.02,1.04,1.92,1.8,2.7.76.77,1.66,1.38,2.7,1.84,1.03.45,2.14.68,3.33.68s2.32-.23,3.35-.68c1.03-.45,1.93-1.07,2.68-1.84s1.35-1.67,1.79-2.7.66-2.12.66-3.27-.22-2.28-.66-3.32c-.44-1.04-1.04-1.94-1.8-2.71-.76-.77-1.66-1.37-2.7-1.82-1.03-.44-2.14-.67-3.33-.67s-2.3.22-3.33.67c-1.03.45-1.93,1.05-2.7,1.82-.77.77-1.37,1.67-1.8,2.71-.44,1.04-.66,2.15-.66,3.32s.22,2.25.66,3.27Z" class="cls-2"/>
      <path d="M535.72,635.35c.43-.67.92-1.27,1.47-1.82.55-.54,1.15-1.01,1.79-1.4s1.33-.7,2.04-.91c.71-.22,1.45-.32,2.2-.32,1.26,0,2.4.23,3.42.69,1.02.46,1.89,1.12,2.61,1.99s1.28,1.93,1.67,3.19c.39,1.26.6,2.67.61,4.24v9.8c0,.3-.1.55-.3.76-.2.21-.46.31-.79.31-.3,0-.54-.1-.73-.31-.19-.21-.29-.46-.29-.76v-9.69c0-2.64-.57-4.66-1.7-6.04-1.14-1.38-2.71-2.07-4.71-2.07-1.01,0-1.96.21-2.84.62-.88.42-1.65.98-2.31,1.7-.65.72-1.17,1.57-1.56,2.54-.39.97-.58,2.02-.58,3.15v9.73c0,.3-.1.55-.3.77-.2.22-.45.32-.75.32s-.55-.11-.76-.32c-.21-.22-.31-.47-.31-.77v-18.82c0-.3.1-.55.31-.76.21-.21.46-.31.76-.31s.55.1.75.31c.2.21.3.46.3.76v3.41Z" class="cls-2"/>
      <path d="M556.83,642.47c.09,1.07.37,2.06.84,2.98.47.92,1.07,1.72,1.82,2.41.74.68,1.59,1.22,2.55,1.62.96.39,1.99.59,3.09.59,1.28,0,2.47-.26,3.57-.78s2-1.23,2.68-2.12c.36-.3.71-.39,1.07-.27.18.06.33.19.47.4.16.19.25.43.26.7,0,.28-.12.53-.39.77-.86.97-1.93,1.76-3.22,2.39-1.28.63-2.77.95-4.44.95-1.47,0-2.85-.28-4.13-.84-1.28-.56-2.41-1.31-3.37-2.27-.97-.96-1.73-2.08-2.28-3.38s-.84-2.67-.84-4.14.28-2.85.84-4.13c.56-1.28,1.32-2.41,2.28-3.36.97-.96,2.09-1.72,3.37-2.27,1.28-.56,2.66-.84,4.13-.84s2.83.27,4.12.82c1.29.55,2.42,1.3,3.37,2.26.96.96,1.72,2.08,2.28,3.36.56,1.28.85,2.66.85,4.11,0,.3-.1.54-.29.73-.19.19-.44.29-.74.29h-17.89ZM573.56,640.67c-.07-1.08-.35-2.1-.81-3.04-.47-.94-1.08-1.76-1.84-2.46-.76-.7-1.63-1.25-2.62-1.65-.99-.4-2.04-.6-3.15-.6s-2.16.2-3.15.6c-.99.4-1.85.95-2.59,1.66-.74.71-1.35,1.53-1.82,2.47-.47.94-.74,1.95-.81,3.02h16.8Z" class="cls-2"/>
      <path d="M582.07,641.12c-.74-.31-1.4-.69-1.98-1.14-.58-.45-1.04-.97-1.39-1.57-.35-.6-.52-1.32-.52-2.15,0-.91.2-1.7.6-2.37.4-.68.92-1.24,1.56-1.69.64-.45,1.36-.79,2.16-1.01.8-.22,1.61-.33,2.43-.33.65,0,1.28.06,1.89.19.61.13,1.18.32,1.72.58.53.26,1.02.58,1.45.97s.79.84,1.07,1.36c.22.45.19.82-.11,1.11-.15.13-.32.22-.52.27-.2.05-.39.02-.57-.09-.64-.85-1.34-1.47-2.1-1.88-.76-.41-1.66-.61-2.68-.61-.55,0-1.11.06-1.67.18-.56.12-1.07.31-1.53.58-.45.27-.82.62-1.11,1.07s-.43.99-.43,1.65c0,.58.13,1.07.38,1.48.25.41.59.77,1.01,1.07s.91.56,1.46.78c.55.22,1.13.41,1.74.59.98.3,1.91.61,2.8.92.88.32,1.66.71,2.32,1.17s1.19,1.01,1.58,1.64c.39.63.59,1.4.59,2.31,0,.85-.19,1.63-.56,2.35-.37.72-.88,1.35-1.53,1.88-.65.53-1.4.95-2.26,1.25-.86.3-1.78.45-2.76.45-.79,0-1.54-.07-2.27-.22-.73-.15-1.4-.38-2.03-.68-.62-.3-1.18-.68-1.68-1.14-.5-.45-.89-.98-1.19-1.59-.18-.31-.23-.59-.14-.85.08-.25.23-.44.43-.56s.45-.15.72-.1c.27.05.52.22.75.5.55.95,1.27,1.64,2.16,2.08.89.44,1.97.66,3.25.66.64,0,1.26-.09,1.87-.28.61-.19,1.15-.45,1.63-.8.47-.35.85-.76,1.14-1.25s.42-1.02.42-1.62c0-.62-.15-1.16-.46-1.6s-.72-.83-1.25-1.16c-.53-.33-1.14-.61-1.84-.86-.7-.25-1.44-.48-2.23-.7-.79-.24-1.55-.51-2.29-.82Z" class="cls-2"/>
      <path d="M625.44,650.81c0,.3-.1.55-.31.75s-.46.3-.76.3-.55-.1-.75-.3-.3-.45-.3-.75v-2.96c-.98,1.31-2.2,2.34-3.66,3.11-1.46.77-3.07,1.15-4.82,1.15-1.46,0-2.83-.28-4.12-.84-1.29-.56-2.42-1.32-3.39-2.28-.97-.97-1.73-2.09-2.28-3.37-.56-1.28-.84-2.66-.84-4.13s.28-2.85.84-4.14,1.32-2.42,2.28-3.37c.97-.96,2.09-1.71,3.39-2.26,1.29-.55,2.67-.82,4.12-.82,1.75,0,3.36.38,4.82,1.14s2.68,1.79,3.66,3.1v-10.71c0-.3.1-.55.3-.75.2-.2.45-.3.75-.3s.55.1.76.3c.21.2.31.45.31.75v26.42ZM607.01,644.76c.44,1.03,1.04,1.93,1.8,2.7s1.66,1.37,2.7,1.83c1.03.45,2.14.68,3.33.68s2.32-.23,3.35-.68c1.03-.45,1.93-1.06,2.68-1.83.76-.77,1.35-1.66,1.79-2.7.44-1.03.66-2.13.66-3.29s-.22-2.27-.66-3.3c-.44-1.02-1.04-1.92-1.8-2.68s-1.66-1.37-2.7-1.8c-1.03-.44-2.14-.66-3.33-.66s-2.3.22-3.33.66c-1.03.44-1.93,1.04-2.7,1.8-.77.77-1.37,1.66-1.8,2.68-.44,1.02-.66,2.12-.66,3.3s.22,2.25.66,3.29Z" class="cls-2"/>
      <path d="M630.99,642.47c.09,1.07.37,2.06.84,2.98.47.92,1.07,1.72,1.82,2.41.74.68,1.59,1.22,2.55,1.62.96.39,1.99.59,3.09.59,1.28,0,2.47-.26,3.57-.78s2-1.23,2.68-2.12c.36-.3.71-.39,1.07-.27.18.06.33.19.47.4.16.19.25.43.26.7,0,.28-.12.53-.39.77-.86.97-1.93,1.76-3.22,2.39-1.28.63-2.77.95-4.44.95-1.47,0-2.85-.28-4.13-.84-1.28-.56-2.41-1.31-3.37-2.27-.97-.96-1.73-2.08-2.28-3.38s-.84-2.67-.84-4.14.28-2.85.84-4.13c.56-1.28,1.32-2.41,2.28-3.36.97-.96,2.09-1.72,3.37-2.27,1.28-.56,2.66-.84,4.13-.84s2.83.27,4.12.82c1.29.55,2.42,1.3,3.37,2.26.96.96,1.72,2.08,2.28,3.36.56,1.28.85,2.66.85,4.11,0,.3-.1.54-.29.73-.19.19-.44.29-.74.29h-17.89ZM647.71,640.67c-.07-1.08-.35-2.1-.81-3.04-.47-.94-1.08-1.76-1.84-2.46-.76-.7-1.63-1.25-2.62-1.65-.99-.4-2.04-.6-3.15-.6s-2.16.2-3.15.6c-.99.4-1.85.95-2.59,1.66-.74.71-1.35,1.53-1.82,2.47-.47.94-.74,1.95-.81,3.02h16.8Z" class="cls-2"/>
      <path d="M665.22,635.39c.5-.68,1.08-1.3,1.72-1.86.64-.56,1.34-1.03,2.09-1.43.76-.39,1.56-.7,2.41-.91.85-.22,1.72-.32,2.63-.32h.2c.36,0,.63.1.82.3s.29.45.29.75-.11.57-.32.77c-.22.2-.48.3-.79.3h-.2c-1.2,0-2.34.23-3.41.7-1.07.47-2.01,1.11-2.82,1.92s-1.45,1.76-1.92,2.84c-.47,1.08-.7,2.25-.7,3.5v8.82c0,.3-.1.55-.31.77-.21.22-.46.32-.75.32s-.53-.11-.74-.32c-.21-.22-.32-.47-.32-.77v-18.82c0-.3.1-.55.31-.76.21-.21.46-.31.75-.31s.56.1.76.31c.2.21.3.46.3.76v3.45Z" class="cls-2"/>
      <path d="M675.56,641.53c0-1.47.28-2.85.84-4.15.56-1.3,1.32-2.43,2.28-3.38.97-.96,2.09-1.71,3.39-2.27s2.67-.83,4.12-.83,2.82.27,4.11.82c1.28.55,2.41,1.3,3.36,2.25.96.95,1.72,2.06,2.27,3.34s.84,2.65.86,4.12v9.32c0,.31-.1.58-.31.79s-.47.32-.78.32-.54-.11-.74-.32c-.19-.22-.29-.48-.29-.79l-.02-3.01c-.49.65-1.04,1.25-1.66,1.78s-1.28.99-2,1.38c-.72.39-1.49.69-2.29.9s-1.64.32-2.51.32c-1.46,0-2.83-.28-4.12-.83-1.29-.56-2.42-1.31-3.39-2.27-.97-.96-1.73-2.08-2.28-3.37s-.84-2.66-.84-4.12ZM677.67,641.52c0,1.16.22,2.25.66,3.27s1.04,1.92,1.81,2.7c.77.77,1.67,1.38,2.7,1.84,1.03.45,2.15.68,3.33.68s2.32-.23,3.36-.68c1.03-.45,1.93-1.07,2.69-1.84.76-.77,1.36-1.67,1.8-2.7s.66-2.12.66-3.27-.22-2.28-.66-3.32c-.44-1.04-1.04-1.94-1.81-2.71s-1.67-1.37-2.7-1.82c-1.03-.44-2.15-.67-3.33-.67s-2.3.22-3.33.67c-1.03.45-1.93,1.05-2.7,1.82s-1.37,1.67-1.81,2.71c-.44,1.04-.66,2.15-.66,3.32Z" class="cls-2"/>
      <path d="M704.38,641.12c-.74-.31-1.4-.69-1.98-1.14-.58-.45-1.04-.97-1.39-1.57-.35-.6-.52-1.32-.52-2.15,0-.91.2-1.7.6-2.37.4-.68.92-1.24,1.56-1.69.64-.45,1.36-.79,2.16-1.01.8-.22,1.61-.33,2.43-.33.65,0,1.28.06,1.89.19.61.13,1.18.32,1.72.58.53.26,1.02.58,1.45.97s.79.84,1.07,1.36c.22.45.19.82-.11,1.11-.15.13-.32.22-.52.27-.2.05-.39.02-.57-.09-.64-.85-1.34-1.47-2.1-1.88s-1.66-.61-2.68-.61c-.55,0-1.11.06-1.67.18-.56.12-1.07.31-1.53.58-.45.27-.82.62-1.11,1.07s-.43.99-.43,1.65c0,.58.13,1.07.38,1.48.25.41.59.77,1.01,1.07s.91.56,1.46.78c.55.22,1.13.41,1.74.59.98.3,1.91.61,2.8.92.88.32,1.66.71,2.32,1.17s1.19,1.01,1.58,1.64c.39.63.59,1.4.59,2.31,0,.85-.19,1.63-.56,2.35-.37.72-.88,1.35-1.53,1.88s-1.4.95-2.26,1.25c-.86.3-1.78.45-2.76.45-.79,0-1.54-.07-2.27-.22-.73-.15-1.4-.38-2.03-.68-.62-.3-1.18-.68-1.68-1.14-.5-.45-.89-.98-1.19-1.59-.18-.31-.23-.59-.14-.85.08-.25.23-.44.43-.56s.45-.15.72-.1c.27.05.52.22.75.5.55.95,1.27,1.64,2.16,2.08.89.44,1.97.66,3.25.66.64,0,1.26-.09,1.87-.28.61-.19,1.15-.45,1.63-.8.47-.35.85-.76,1.14-1.25s.42-1.02.42-1.62c0-.62-.15-1.16-.46-1.6s-.72-.83-1.25-1.16c-.53-.33-1.14-.61-1.84-.86-.7-.25-1.44-.48-2.23-.7-.79-.24-1.55-.51-2.29-.82Z" class="cls-2"/>
      <path d="M721.84,630.89h3.39c.3,0,.55.1.76.3.21.2.31.45.31.75s-.1.57-.31.77c-.21.2-.46.3-.76.3h-3.39v17.8c0,.3-.1.55-.31.75-.21.2-.46.3-.76.3s-.55-.1-.75-.3c-.2-.2-.3-.45-.3-.75v-17.8h-2.78c-.3,0-.55-.1-.76-.31s-.31-.46-.31-.76.1-.55.31-.75c.21-.2.46-.3.76-.3h2.78v-6.5c0-.3.1-.55.3-.75.2-.2.45-.3.75-.3s.55.1.76.3c.21.2.31.45.31.75v6.5Z" class="cls-2"/>
      <path d="M731.04,635.39c.5-.68,1.08-1.3,1.72-1.86.64-.56,1.34-1.03,2.09-1.43.76-.39,1.56-.7,2.41-.91.85-.22,1.72-.32,2.63-.32h.2c.36,0,.63.1.82.3s.29.45.29.75-.11.57-.32.77c-.22.2-.48.3-.79.3h-.2c-1.2,0-2.34.23-3.41.7-1.07.47-2.01,1.11-2.82,1.92s-1.45,1.76-1.92,2.84-.7,2.25-.7,3.5v8.82c0,.3-.1.55-.31.77-.21.22-.46.32-.75.32s-.53-.11-.74-.32c-.21-.22-.32-.47-.32-.77v-18.82c0-.3.1-.55.31-.76.21-.21.46-.31.75-.31s.56.1.76.31c.2.21.3.46.3.76v3.45Z" class="cls-2"/>
      <path d="M743.72,642.47c.09,1.07.37,2.06.84,2.98.47.92,1.07,1.72,1.82,2.41.74.68,1.59,1.22,2.55,1.62.96.39,1.99.59,3.09.59,1.28,0,2.47-.26,3.57-.78s2-1.23,2.68-2.12c.36-.3.71-.39,1.07-.27.18.06.33.19.47.4.16.19.25.43.26.7,0,.28-.12.53-.39.77-.86.97-1.93,1.76-3.22,2.39-1.28.63-2.77.95-4.44.95-1.47,0-2.85-.28-4.13-.84-1.28-.56-2.41-1.31-3.37-2.27-.97-.96-1.73-2.08-2.28-3.38s-.84-2.67-.84-4.14.28-2.85.84-4.13c.56-1.28,1.32-2.41,2.28-3.36.97-.96,2.09-1.72,3.37-2.27,1.28-.56,2.66-.84,4.13-.84s2.83.27,4.12.82c1.29.55,2.42,1.3,3.37,2.26.96.96,1.72,2.08,2.28,3.36.56,1.28.85,2.66.85,4.11,0,.3-.1.54-.29.73-.19.19-.44.29-.74.29h-17.89ZM760.45,640.67c-.07-1.08-.35-2.1-.81-3.04-.47-.94-1.08-1.76-1.84-2.46-.76-.7-1.63-1.25-2.62-1.65-.99-.4-2.04-.6-3.15-.6s-2.16.2-3.15.6c-.99.4-1.85.95-2.59,1.66-.74.71-1.35,1.53-1.82,2.47-.47.94-.74,1.95-.81,3.02h16.8Z" class="cls-2"/>
      <path d="M765.38,637.36c.56-1.3,1.32-2.43,2.28-3.39.97-.96,2.09-1.72,3.39-2.27,1.29-.56,2.67-.84,4.12-.84s2.85.28,4.13.84c1.28.56,2.41,1.31,3.36,2.27.96.96,1.72,2.09,2.27,3.39.56,1.3.84,2.68.84,4.15s-.28,2.83-.84,4.12-1.31,2.42-2.27,3.38c-.96.96-2.08,1.72-3.36,2.27-1.28.56-2.66.84-4.13.84s-2.83-.28-4.12-.84c-1.29-.56-2.42-1.31-3.39-2.27-.97-.96-1.73-2.08-2.28-3.38s-.84-2.66-.84-4.12.28-2.85.84-4.15ZM767.34,644.79c.44,1.02,1.04,1.92,1.8,2.7.76.77,1.66,1.38,2.7,1.84,1.03.45,2.14.68,3.33.68s2.32-.23,3.35-.68c1.03-.45,1.93-1.07,2.68-1.84s1.35-1.67,1.79-2.7.66-2.12.66-3.27-.22-2.28-.66-3.32c-.44-1.04-1.04-1.94-1.8-2.71s-1.66-1.37-2.7-1.82c-1.03-.44-2.14-.67-3.33-.67s-2.3.22-3.33.67c-1.03.45-1.93,1.05-2.7,1.82-.77.77-1.37,1.67-1.8,2.71-.44,1.04-.66,2.15-.66,3.32s.22,2.25.66,3.27Z" class="cls-2"/>
      <path d="M802.14,641.12c-.74-.31-1.4-.69-1.98-1.14-.58-.45-1.04-.97-1.39-1.57-.35-.6-.52-1.32-.52-2.15,0-.91.2-1.7.6-2.37.4-.68.92-1.24,1.56-1.69.64-.45,1.36-.79,2.16-1.01.8-.22,1.61-.33,2.43-.33.65,0,1.28.06,1.89.19.61.13,1.18.32,1.72.58.53.26,1.02.58,1.45.97s.79.84,1.07,1.36c.22.45.19.82-.11,1.11-.15.13-.32.22-.52.27-.2.05-.39.02-.57-.09-.64-.85-1.34-1.47-2.1-1.88s-1.66-.61-2.68-.61c-.55,0-1.11.06-1.67.18-.56.12-1.07.31-1.53.58-.45.27-.82.62-1.11,1.07s-.43.99-.43,1.65c0,.58.13,1.07.38,1.48.25.41.59.77,1.01,1.07s.91.56,1.46.78c.55.22,1.13.41,1.74.59.98.3,1.91.61,2.8.92.88.32,1.66.71,2.32,1.17s1.19,1.01,1.58,1.64c.39.63.59,1.4.59,2.31,0,.85-.19,1.63-.56,2.35-.37.72-.88,1.35-1.53,1.88s-1.4.95-2.26,1.25c-.86.3-1.78.45-2.76.45-.79,0-1.54-.07-2.27-.22-.73-.15-1.4-.38-2.03-.68-.62-.3-1.18-.68-1.68-1.14-.5-.45-.89-.98-1.19-1.59-.18-.31-.23-.59-.14-.85.08-.25.23-.44.43-.56s.45-.15.72-.1c.27.05.52.22.75.5.55.95,1.27,1.64,2.16,2.08.89.44,1.97.66,3.25.66.64,0,1.26-.09,1.87-.28.61-.19,1.15-.45,1.63-.8.47-.35.85-.76,1.14-1.25s.42-1.02.42-1.62c0-.62-.15-1.16-.46-1.6s-.72-.83-1.25-1.16c-.53-.33-1.14-.61-1.84-.86-.7-.25-1.44-.48-2.23-.7-.79-.24-1.55-.51-2.29-.82Z" class="cls-2"/>
      <path d="M814.26,641.53c0-1.47.28-2.85.84-4.15.56-1.3,1.32-2.43,2.28-3.38.97-.96,2.09-1.71,3.39-2.27s2.67-.83,4.12-.83,2.82.27,4.11.82c1.28.55,2.41,1.3,3.36,2.25.96.95,1.72,2.06,2.27,3.34s.84,2.65.86,4.12v9.32c0,.31-.1.58-.31.79s-.47.32-.78.32-.54-.11-.74-.32c-.19-.22-.29-.48-.29-.79l-.02-3.01c-.49.65-1.04,1.25-1.66,1.78s-1.28.99-2,1.38c-.72.39-1.49.69-2.29.9s-1.64.32-2.51.32c-1.46,0-2.83-.28-4.12-.83-1.29-.56-2.42-1.31-3.39-2.27-.97-.96-1.73-2.08-2.28-3.37s-.84-2.66-.84-4.12ZM816.38,641.52c0,1.16.22,2.25.66,3.27s1.04,1.92,1.81,2.7,1.67,1.38,2.7,1.84c1.03.45,2.15.68,3.33.68s2.32-.23,3.36-.68c1.03-.45,1.93-1.07,2.69-1.84.76-.77,1.36-1.67,1.8-2.7s.66-2.12.66-3.27-.22-2.28-.66-3.32c-.44-1.04-1.04-1.94-1.81-2.71s-1.67-1.37-2.7-1.82c-1.03-.44-2.15-.67-3.33-.67s-2.3.22-3.33.67c-1.03.45-1.93,1.05-2.7,1.82-.77.77-1.37,1.67-1.81,2.71-.44,1.04-.66,2.15-.66,3.32Z" class="cls-2"/>
      <path d="M844.02,630.89h3.39c.3,0,.55.1.76.3.21.2.31.45.31.75s-.1.57-.31.77c-.21.2-.46.3-.76.3h-3.39v17.8c0,.3-.1.55-.31.75-.21.2-.46.3-.76.3s-.55-.1-.75-.3c-.2-.2-.3-.45-.3-.75v-17.8h-2.78c-.3,0-.55-.1-.76-.31s-.31-.46-.31-.76.1-.55.31-.75c.21-.2.46-.3.76-.3h2.78v-6.5c0-.3.1-.55.3-.75.2-.2.45-.3.75-.3s.55.1.76.3c.21.2.31.45.31.75v6.5Z" class="cls-2"/>
      <path d="M851.86,642.47c.09,1.07.37,2.06.84,2.98.47.92,1.07,1.72,1.82,2.41.74.68,1.59,1.22,2.55,1.62.96.39,1.99.59,3.09.59,1.28,0,2.47-.26,3.57-.78s2-1.23,2.68-2.12c.36-.3.71-.39,1.07-.27.18.06.33.19.47.4.16.19.25.43.26.7,0,.28-.12.53-.39.77-.86.97-1.93,1.76-3.22,2.39-1.28.63-2.77.95-4.44.95-1.47,0-2.85-.28-4.13-.84-1.28-.56-2.41-1.31-3.37-2.27-.97-.96-1.73-2.08-2.28-3.38s-.84-2.67-.84-4.14.28-2.85.84-4.13c.56-1.28,1.32-2.41,2.28-3.36.97-.96,2.09-1.72,3.37-2.27,1.28-.56,2.66-.84,4.13-.84s2.83.27,4.12.82c1.29.55,2.42,1.3,3.37,2.26.96.96,1.72,2.08,2.28,3.36.56,1.28.85,2.66.85,4.11,0,.3-.1.54-.29.73-.19.19-.44.29-.74.29h-17.89ZM868.59,640.67c-.07-1.08-.35-2.1-.81-3.04-.47-.94-1.08-1.76-1.84-2.46-.76-.7-1.63-1.25-2.62-1.65-.99-.4-2.04-.6-3.15-.6s-2.16.2-3.15.6c-.99.4-1.85.95-2.59,1.66-.74.71-1.35,1.53-1.82,2.47-.47.94-.74,1.95-.81,3.02h16.8Z" class="cls-2"/>
      <path d="M876.12,650.81c0,.3-.1.55-.31.75s-.46.3-.76.3-.55-.1-.76-.3-.31-.45-.31-.75v-26.42c0-.3.1-.55.31-.75.21-.2.46-.3.76-.3s.55.1.76.3c.21.2.31.45.31.75v26.42Z" class="cls-2"/>
      <path d="M880.65,625.08c.26-.27.58-.4.97-.4s.74.13,1,.4c.27.27.4.6.4,1,0,.37-.13.69-.4.96-.27.27-.6.4-1,.4s-.71-.13-.97-.4-.39-.59-.39-.96c0-.4.13-.74.39-1ZM882.69,650.76c0,.3-.1.55-.3.77-.2.22-.45.32-.75.32s-.55-.11-.76-.32c-.21-.22-.31-.47-.31-.77v-18.82c0-.3.1-.55.31-.76.21-.21.46-.31.76-.31s.55.1.75.31c.2.21.3.46.3.76v18.82Z" class="cls-2"/>
      <path d="M891.2,630.89h3.39c.3,0,.55.1.76.3.21.2.31.45.31.75s-.1.57-.31.77c-.21.2-.46.3-.76.3h-3.39v17.8c0,.3-.1.55-.31.75-.21.2-.46.3-.76.3s-.55-.1-.75-.3c-.2-.2-.3-.45-.3-.75v-17.8h-2.78c-.3,0-.55-.1-.76-.31s-.31-.46-.31-.76.1-.55.31-.75c.21-.2.46-.3.76-.3h2.78v-6.5c0-.3.1-.55.3-.75.2-.2.45-.3.75-.3s.55.1.76.3c.21.2.31.45.31.75v6.5Z" class="cls-2"/>
      <path d="M896.7,641.53c0-1.47.28-2.85.84-4.15.56-1.3,1.32-2.43,2.28-3.38.97-.96,2.09-1.71,3.39-2.27s2.67-.83,4.12-.83,2.82.27,4.11.82c1.28.55,2.41,1.3,3.36,2.25.96.95,1.72,2.06,2.27,3.34s.84,2.65.86,4.12v9.32c0,.31-.1.58-.31.79s-.47.32-.78.32-.54-.11-.74-.32c-.19-.22-.29-.48-.29-.79l-.02-3.01c-.49.65-1.04,1.25-1.66,1.78s-1.28.99-2,1.38c-.72.39-1.49.69-2.29.9s-1.64.32-2.51.32c-1.46,0-2.83-.28-4.12-.83-1.29-.56-2.42-1.31-3.39-2.27-.97-.96-1.73-2.08-2.28-3.37s-.84-2.66-.84-4.12ZM898.81,641.52c0,1.16.22,2.25.66,3.27s1.04,1.92,1.81,2.7,1.67,1.38,2.7,1.84c1.03.45,2.15.68,3.33.68s2.32-.23,3.36-.68c1.03-.45,1.93-1.07,2.69-1.84.76-.77,1.36-1.67,1.8-2.7s.66-2.12.66-3.27-.22-2.28-.66-3.32c-.44-1.04-1.04-1.94-1.81-2.71s-1.67-1.37-2.7-1.82c-1.03-.44-2.15-.67-3.33-.67s-2.3.22-3.33.67c-1.03.45-1.93,1.05-2.7,1.82-.77.77-1.37,1.67-1.81,2.71-.44,1.04-.66,2.15-.66,3.32Z" class="cls-2"/>
      <path d="M924.54,650.81c0,.3-.1.55-.31.75s-.46.3-.76.3-.55-.1-.76-.3-.31-.45-.31-.75v-26.42c0-.3.1-.55.31-.75.21-.2.46-.3.76-.3s.55.1.76.3c.21.2.31.45.31.75v26.42Z" class="cls-2"/>
    </g>
    <g>
      <path d="M477.72,427.86c20.21,0,34.51,10.4,34.51,30.26v1.18c0,21.28-16.07,29.9-32.15,29.9h-44.21v21.39h-24.82v-82.74h66.66ZM486.7,458.35c0-7.92-2.72-9.93-12.53-9.93h-38.3v21.04h38.18c9.93,0,12.65-1.89,12.65-9.81v-1.3Z" class="cls-2"/>
      <path d="M596.15,427.86c21.39,0,32.03,8.75,32.03,26.12v1.77c0,9.81-4.96,16.43-14.89,19.86v.24c10.87,3.43,13.71,9.1,15.01,21.51.59,5.91,2.36,10.16,3.66,13.24h-26.59c-.83-1.18-1.06-3.19-1.18-5.91-.59-11.94-5.56-17.85-17.26-17.85h-36.76v23.76h-24.82v-82.74h70.8ZM602.65,456.82c0-6.26-2.95-8.39-12.53-8.39h-39.95v18.68h39.71c9.81,0,12.77-2.13,12.77-8.75v-1.54Z" class="cls-2"/>
      <path d="M643.3,427.86h24.82v82.74h-24.82v-82.74Z" class="cls-2"/>
      <path d="M817.99,427.86l1.18,82.74h-24.58l-1.18-59.1.47-2.84-1.89-1.18-1.42,2.72-29.08,50.35h-21.75l-29.08-50.35-1.65-2.72-1.89,1.18.71,2.84-1.18,59.1h-24.58l1.18-82.74h38.41l26.95,46.1.47,1.18h3.07l.47-1.18,27.07-46.1h38.3Z" class="cls-2"/>
      <path d="M832.64,427.86h89.71v20.33h-64.89v11.35h59.33v18.91h-59.33v11.82h65.6v20.33h-90.42v-82.74Z" class="cls-2"/>
    </g>
    <g>
      <path d="M500.79,526.38v18.51h-35.54v55.97h-22.35v-55.97h-35.54v-18.51h93.43Z" class="cls-2"/>
      <path d="M575.38,526.38c19.26,0,28.84,7.87,28.84,23.52v1.6c0,8.83-4.47,14.79-13.41,17.88v.21c9.79,3.09,12.34,8.19,13.51,19.37.53,5.32,2.13,9.15,3.3,11.92h-23.94c-.74-1.06-.96-2.87-1.06-5.32-.53-10.75-5-16.07-15.54-16.07h-33.09v21.39h-22.35v-74.49h63.74ZM581.23,552.45c0-5.64-2.66-7.56-11.28-7.56h-35.97v16.81h35.75c8.83,0,11.49-1.92,11.49-7.87v-1.38Z" class="cls-2"/>
      <path d="M700.2,600.87l-7.02-12.56h-50.22l-7.02,12.56h-24.26l43.95-74.49h24.79l44.05,74.49h-24.26ZM683.39,571.07l-12.45-26.18-.32-.85h-5.11l-.32.85-12.45,26.18h30.65Z" class="cls-2"/>
      <path d="M822.46,588.74c-11.81,8.51-28.09,14.26-49.69,14.26-29.26,0-48.73-11.07-48.73-39.48,0-23.52,15.22-39.26,54.37-39.26,13.83,0,27.99,1.81,40.54,6.6l-6.6,18.09c-10.43-3.62-22.88-5.96-37.24-5.96-16.81,0-28.09,5.85-28.09,20.75,0,12.34,6.7,20.54,24.05,20.54,13.94,0,27.99-2.77,40.54-9.9l10.85,14.37Z" class="cls-2"/>
      <path d="M896.42,600.87l-31.18-28.41h-9.58v28.41h-22.35v-74.49h22.35v27.56h11.7l27.45-27.56h28.73l-38.73,36.92,41.92,37.56h-30.33Z" class="cls-2"/>
    </g>
  </g>
  <g>
    <path d="M360.55,462.49c-33.53-48.82-93.5-65.69-144.79-41.12-6.51,4.14-13.4,7.79-19.48,12.5-54.07,41.87-57.67,119.24-7.99,169.08,16.34,16.4,33.74,31.87,48.89,49.29,19.16,22.04,33,23.6,55.14,3.26,16.65-15.29,33.39-30.5,50.12-45.71,39.97-36.37,48.22-103.45,18.11-147.3ZM309.08,607.43c-28.41,13.93-62.01,11.27-88.54-3.87,8.19-8.55,16.2-17.29,24.82-25.37,2.51-2.35,7.34-3.15,10.97-2.88,1.39.11,3.07,5.13,3.45,8.06.77,6.02.38,12.18,1.16,18.2.65,5.02,3.93,7.69,9.32,7.28,5.51-.42,7.77-3.44,7.56-8.78-.24-6.08-.16-12.18-.6-18.25-.34-4.7.49-7.03,5.92-8.67,35.78-10.85,49.61-41.06,45.48-68.91-5.31-35.86-33.3-58.01-67.69-55.55-23.86,1.71-41.15,14.16-51.51,35.16-10.67,21.64-9.23,43.39,3.99,63.87,5.14,7.97,7.63,7.97,13.69.91,1.22-1.42,2.2-3.06,3.36-4.69-1.69-2.52-3.27-4.78-4.75-7.09-11.7-18.35-8.89-43.21,6.62-58.8,15.55-15.62,40.54-18.38,58.64-6.48,20.48,13.47,27.94,40.5,17.17,62.21-10.34,20.86-34.72,30.5-57.84,22.57-4.06-1.39-6.98-1.84-10.22,1.76-10.94,12.13-22.27,23.89-33.11,36.1-9.42-7.78-17.35-17.44-23.02-28.7-23.87-47.42-6.83-102.13,38.9-124.85,47.4-23.55,103.43-5.81,126.26,39.97,23.22,46.58,4.85,104.8-40.03,126.81Z" class="cls-1"/>
    <circle r="28.23" cy="512.29" cx="265.65" class="cls-1"/>
  </g>
</svg>